<?xml version="1.0" encoding="UTF-8" standalone="no"?>
<!DOCTYPE svg PUBLIC "-//W3C//DTD SVG 1.1//EN" "http://www.w3.org/Graphics/SVG/1.1/DTD/svg11.dtd">
<svg width="100%" height="100%" viewBox="0 0 1491 191" version="1.1" xmlns="http://www.w3.org/2000/svg" xmlns:xlink="http://www.w3.org/1999/xlink" xml:space="preserve" xmlns:serif="http://www.serif.com/" style="fill-rule:evenodd;clip-rule:evenodd;stroke-linejoin:round;stroke-miterlimit:2;">
    <g transform="matrix(1,0,0,1,12.1735,92.2508)">
        <path d="M0,-6.249C0.101,-17.222 1.338,-27.996 6.32,-38.011C6.751,-38.876 7.157,-39.754 7.574,-40.625C7.478,-40.783 7.382,-40.942 7.286,-41.1C3.118,-39.908 -1.046,-38.702 -5.22,-37.528C-8.946,-36.479 -10.439,-33.971 -10.839,-30.179C-12.376,-15.62 -12.471,-1.044 -11.703,13.547C-11.466,18.033 -10.926,22.517 -10.237,26.958C-10.049,28.172 -9.069,29.612 -8.026,30.282C-4.09,32.808 0.402,33.901 5.17,34.851C5.045,34.165 4.987,33.721 4.882,33.287C1.736,20.296 -0.124,7.138 0,-6.249" style="fill:rgb(30,55,101);fill-rule:nonzero;"/>
    </g>
    <g transform="matrix(1,0,0,1,242.096,115.926)">
        <path d="M0,-58.294C-0.165,-60.705 -1.424,-62.279 -3.706,-63.012C-8.343,-64.501 -12.988,-65.963 -17.63,-67.437C-17.791,-67.217 -17.951,-66.999 -18.113,-66.78C-12.193,-56.307 -10.616,-44.852 -10.455,-33.119C-10.277,-20.075 -11.962,-7.23 -15.003,5.446C-15.245,6.454 -15.435,7.474 -15.786,9.143C-11.381,7.6 -7.503,6.334 -3.701,4.869C-2.073,4.242 -0.575,3.221 -0.226,1.251C0.091,-0.536 0.57,-2.32 0.647,-4.119C1.059,-13.794 1.704,-23.476 1.611,-33.149C1.53,-41.535 0.572,-49.912 0,-58.294" style="fill:rgb(30,55,101);fill-rule:nonzero;"/>
    </g>
    <g transform="matrix(1,0,0,1,225.838,119.651)">
        <path d="M0,-48.552C-0.733,-57.224 -3.257,-65.265 -7.776,-72.696C-14.311,-83.465 -23.452,-91.587 -33.956,-98.244C-49.957,-108.402 -67.423,-114.713 -86.009,-118.113C-90.61,-118.947 -95.211,-119.497 -99.832,-119.701L-99.832,-64.655C-94.193,-64.471 -88.534,-63.901 -82.875,-62.945C-67.423,-60.318 -52.4,-56.349 -38.129,-49.794C-35.259,-48.491 -32.572,-46.801 -29.823,-45.254C-25.121,-42.587 -23.329,-38.394 -23.248,-33.162C-23.085,-20.357 -26.525,-8.611 -33.202,2.28C-34.302,4.092 -36.053,4.743 -37.905,5.048C-45.274,6.209 -52.624,7.715 -60.034,8.225C-72.981,9.1 -85.948,9.527 -99.832,10.117L-99.832,41.814C-98.611,41.529 -94.967,40.409 -90.59,36.48C-90.162,36.012 -89.755,35.625 -89.389,35.34C-86.702,32.694 -83.831,28.969 -81.124,23.777C-80.35,22.271 -78.497,21.701 -77.011,22.475C-75.505,23.248 -74.935,25.1 -75.709,26.607C-85.806,45.967 -98.875,47.901 -99.445,47.962C-99.567,47.982 -99.71,47.982 -99.832,47.982L-99.832,71.149C-88.452,70.518 -77.602,67.26 -67.016,62.741C-53.947,57.163 -41.854,49.876 -30.129,41.895C-20.703,35.483 -13.944,27.197 -9.853,16.693C-1.69,-4.295 1.873,-26.016 0,-48.552" style="fill:rgb(30,55,101);fill-rule:nonzero;"/>
    </g>
    <g transform="matrix(-0.0146949,0.999892,0.999892,0.0146949,159.946,82.1726)">
        <path d="M13.874,-14.349C6.205,-14.341 0.068,-8.092 0.034,-0.253C0.004,7.29 6.346,13.678 13.874,13.688C21.551,13.695 27.946,7.357 27.949,-0.255C27.956,-8.11 21.721,-14.355 13.874,-14.349ZM8.99,-0.401C9.03,-3.148 11.281,-5.358 14.02,-5.341C16.719,-5.322 19.016,-3.005 19.004,-0.315C18.99,2.36 16.69,4.589 13.923,4.613C11.219,4.634 8.946,2.326 8.99,-0.401Z" style="fill:rgb(30,55,101);"/>
    </g>
    <g transform="matrix(1,0,0,1,46.2931,28.0545)">
        <path d="M0,132.994C6.641,139.666 14.046,145.49 22.782,149.564C26.07,151.098 28.991,149.578 30.827,146.573C33.114,142.829 35.293,139.024 37.582,135.282C40.033,131.275 43.324,130.09 46.514,131.974C49.528,133.755 49.92,136.757 47.594,140.709C45.816,143.731 43.868,146.667 42.196,149.74C40.151,153.499 41.521,157.467 45.68,158.416C51.534,159.751 57.535,160.696 63.53,161.203C68.152,161.594 70.499,159.094 70.54,154.626C70.62,146.097 70.62,137.567 70.539,129.038C70.496,124.524 67.955,122.11 63.268,121.971C59.938,121.872 56.601,121.984 53.27,121.906C49.768,121.825 47.336,120.26 47.275,116.746C47.215,113.338 49.418,111.354 52.904,111.104C56.371,110.856 59.87,111.056 63.351,110.947C68.422,110.787 70.539,108.791 70.553,104.03C70.599,88.561 70.601,73.092 70.567,57.624C70.555,52.63 68.525,50.558 63.162,50.389C55.746,50.155 48.318,50.003 40.903,50.155C36.473,50.246 33.506,48.853 31.306,45.064C25.879,35.717 20.132,26.539 14.558,17.269C12.138,13.244 12.591,9.809 15.63,8.138C18.741,6.428 21.965,7.701 24.439,11.725C28.728,18.701 33.201,25.588 37.138,32.742C39.689,37.377 42.882,39.714 48.595,39.187C53.398,38.743 58.283,39.159 63.13,39.096C68.067,39.032 70.528,36.866 70.545,32.301C70.607,14.374 70.606,-3.552 70.531,-21.478C70.514,-25.653 67.492,-28.6 63.263,-27.917C54.94,-26.574 46.616,-25 38.496,-22.827C32.783,-21.298 31.821,-17.787 34.812,-12.7C38.22,-6.906 41.792,-1.199 45.18,4.606C47.607,8.763 47.074,12.034 43.924,13.707C40.768,15.384 37.581,14.027 35.139,9.983C31.512,3.975 27.938,-2.062 24.223,-8.021C21.03,-13.142 18.163,-13.851 13.086,-10.319C1.191,-2.044 -8.648,8.066 -15.649,20.509C-18.127,24.912 -15.59,28.957 -10.261,29.364C-8.302,29.513 -6.322,29.386 -4.356,29.472C-0.731,29.632 1.302,31.513 1.331,34.944C1.36,38.432 -0.737,40.269 -4.361,40.334C-8.905,40.416 -13.452,40.421 -17.996,40.368C-22.44,40.317 -25.531,42.234 -25.981,46.437C-26.915,55.172 -27.653,63.945 -27.937,72.718C-28.077,77.045 -25.634,78.891 -20.969,78.95C-12.184,79.061 -3.396,78.977 5.391,79.007C6.899,79.012 8.44,79.024 9.908,79.305C13.225,79.94 14.862,82.063 14.634,85.217C14.408,88.344 12.193,89.818 9.115,89.864C1.693,89.975 -5.732,89.903 -13.154,89.954C-14.811,89.966 -16.514,89.987 -18.112,90.346C-22.255,91.278 -24.291,94.467 -22.609,98.18C-19.676,104.655 -16.479,111.044 -12.937,117.231C-12.028,118.817 -9.441,119.56 -7.56,120.584C-7.089,120.841 -6.371,120.691 -5.766,120.716C11.341,121.404 11.373,121.422 20.041,107.313C24.788,99.588 29.478,91.829 34.048,84.007C36.132,80.439 39.15,78.897 43.329,78.974C47.872,79.059 52.422,78.917 56.962,79.064C60.669,79.183 63.531,80.635 63.705,84.629C63.845,87.814 61.095,89.96 56.838,89.914C42.137,89.758 44.471,89.183 36.948,101.276C31.692,109.724 26.525,118.227 21.523,126.814C19.626,130.069 17.129,131.805 13.216,131.753C8.995,131.698 4.773,131.741 0.551,131.741C0.368,132.159 0.184,132.576 0,132.994" style="fill:rgb(30,55,101);fill-rule:nonzero;"/>
    </g>
    <g transform="matrix(2.7387,0,0,2.7387,1341.89,77.0425)">
        <path d="M0,-27.935L-0.899,-23.481L-14.886,-23.481L-16.293,-16.448L-2.968,-16.448L-3.888,-11.819L-17.267,-11.819L-18.732,-4.493L-4.413,-4.493L-5.312,0L-24.71,0L-19.123,-27.935L0,-27.935Z" style="fill:rgb(30,55,101);fill-rule:nonzero;"/>
    </g>
    <g transform="matrix(2.7387,0,0,2.7387,1340.45,0.53788)">
        <path d="M0,27.935L5.586,0L10.761,0L21.525,19.966L25.513,0L30.492,0L24.905,27.935L19.727,27.935L9.062,7.541L4.979,27.935L0,27.935Z" style="fill:rgb(30,55,101);fill-rule:nonzero;"/>
    </g>
    <g transform="matrix(2.7387,0,0,2.7387,1490.04,77.0425)">
        <path d="M0,-27.935L-0.899,-23.442L-8.908,-23.442L-13.599,0L-18.774,0L-14.087,-23.442L-22.095,-23.442L-21.196,-27.935L0,-27.935Z" style="fill:rgb(30,55,101);fill-rule:nonzero;"/>
    </g>
    <g transform="matrix(2.7387,0,0,2.7387,324.673,77.0425)">
        <path d="M0,-27.935L-0.899,-23.442L-8.908,-23.442L-13.6,0L-18.774,0L-14.087,-23.442L-22.095,-23.442L-21.197,-27.935L0,-27.935Z" style="fill:rgb(30,55,101);fill-rule:nonzero;"/>
    </g>
    <g transform="matrix(2.7387,0,0,2.7387,355.486,12.3063)">
        <path d="M0,19.34C5.628,19.34 9.091,16.091 10.394,9.591C11.668,3.197 9.495,0.001 3.867,0.001C-1.902,0.001 -5.424,3.197 -6.701,9.591C-8.004,16.091 -5.769,19.34 0,19.34M-12.092,9.71C-10.202,0.242 -4.583,-4.493 4.766,-4.493C13.974,-4.493 17.633,0.242 15.748,9.71C13.857,19.126 8.309,23.833 -0.899,23.833C-9.832,23.833 -13.566,19.126 -12.092,9.71" style="fill:rgb(30,55,101);fill-rule:nonzero;"/>
    </g>
    <g transform="matrix(2.7387,0,0,2.7387,404.337,0.644415)">
        <path d="M0,27.857L5.586,-0.039L18.283,-0.039C23.989,-0.039 26.337,2.454 25.333,7.443C24.543,11.389 21.762,14.183 16.992,15.822L23.44,27.896L17.404,27.896L11.326,15.727L11.797,13.362C16.588,12.516 19.286,10.594 19.885,7.599C20.301,5.541 19.352,4.513 17.033,4.513L9.94,4.513L5.274,27.857L0,27.857Z" style="fill:rgb(30,55,101);fill-rule:nonzero;"/>
    </g>
    <g transform="matrix(2.7387,0,0,2.7387,512.776,12.3063)">
        <path d="M0,19.34C5.628,19.34 9.091,16.091 10.394,9.591C11.668,3.197 9.495,0.001 3.867,0.001C-1.902,0.001 -5.424,3.197 -6.702,9.591C-8.005,16.091 -5.77,19.34 0,19.34M-12.093,9.71C-10.203,0.242 -4.583,-4.493 4.766,-4.493C13.974,-4.493 17.633,0.242 15.747,9.71C13.857,19.126 8.309,23.833 -0.899,23.833C-9.832,23.833 -13.566,19.126 -12.093,9.71" style="fill:rgb(30,55,101);fill-rule:nonzero;"/>
    </g>
    <g transform="matrix(2.7387,0,0,2.7387,561.637,0.53788)">
        <path d="M0,27.935L5.586,0L10.76,0L21.525,19.966L25.513,0L30.491,0L24.905,27.935L19.727,27.935L9.062,7.541L4.979,27.935L0,27.935Z" style="fill:rgb(30,55,101);fill-rule:nonzero;"/>
    </g>
    <g transform="matrix(2.7387,0,0,2.7387,711.22,77.0425)">
        <path d="M0,-27.935L-0.899,-23.442L-8.908,-23.442L-13.6,0L-18.774,0L-14.087,-23.442L-22.095,-23.442L-21.197,-27.935L0,-27.935Z" style="fill:rgb(30,55,101);fill-rule:nonzero;"/>
    </g>
    <g transform="matrix(2.7387,0,0,2.7387,742.033,12.3063)">
        <path d="M0,19.34C5.628,19.34 9.091,16.091 10.394,9.591C11.668,3.197 9.495,0.001 3.868,0.001C-1.902,0.001 -5.424,3.197 -6.701,9.591C-8.004,16.091 -5.769,19.34 0,19.34M-12.092,9.71C-10.202,0.242 -4.583,-4.493 4.766,-4.493C13.974,-4.493 17.633,0.242 15.748,9.71C13.858,19.126 8.309,23.833 -0.899,23.833C-9.832,23.833 -13.566,19.126 -12.092,9.71" style="fill:rgb(30,55,101);fill-rule:nonzero;"/>
    </g>
    <g transform="matrix(-0.53701,2.68553,2.68553,0.53701,864.317,60.7386)">
        <path d="M-20.131,-11.431L8.357,-11.431L9.371,-16.504L-19.117,-16.504L-20.131,-11.431Z" style="fill:rgb(30,55,101);fill-rule:nonzero;"/>
    </g>
    <g transform="matrix(2.7387,0,0,2.7387,845.184,0.53788)">
        <path d="M0,27.935L5.586,0L10.76,0L21.525,19.966L25.512,0L30.491,0L24.905,27.935L19.726,27.935L9.062,7.541L4.978,27.935L0,27.935Z" style="fill:rgb(30,55,101);fill-rule:nonzero;"/>
    </g>
    <g transform="matrix(2.7387,0,0,2.7387,994.777,77.0425)">
        <path d="M0,-27.935L-0.899,-23.442L-8.908,-23.442L-13.6,0L-18.774,0L-14.087,-23.442L-22.095,-23.442L-21.196,-27.935L0,-27.935Z" style="fill:rgb(30,55,101);fill-rule:nonzero;"/>
    </g>
    <g transform="matrix(2.7387,0,0,2.7387,1055.17,77.0425)">
        <path d="M0,-27.935L-0.899,-23.481L-14.885,-23.481L-16.292,-16.448L-2.968,-16.448L-3.888,-11.819L-17.266,-11.819L-18.732,-4.493L-4.412,-4.493L-5.312,0L-24.709,0L-19.123,-27.935L0,-27.935Z" style="fill:rgb(30,55,101);fill-rule:nonzero;"/>
    </g>
    <g transform="matrix(2.7387,0,0,2.7387,1083.21,77.0425)">
        <path d="M0,-27.935L-4.687,-4.493L6.411,-4.493L5.511,0L-10.76,0L-5.174,-27.935L0,-27.935Z" style="fill:rgb(30,55,101);fill-rule:nonzero;"/>
    </g>
    <g transform="matrix(2.7387,0,0,2.7387,1141.14,77.0425)">
        <path d="M0,-27.935L-4.687,-4.493L6.411,-4.493L5.511,0L-10.76,0L-5.174,-27.935L0,-27.935Z" style="fill:rgb(30,55,101);fill-rule:nonzero;"/>
    </g>
    <g transform="matrix(-0.53701,2.68553,2.68553,0.53701,1218.98,60.7386)">
        <path d="M-20.131,-11.431L8.357,-11.431L9.371,-16.504L-19.117,-16.504L-20.131,-11.431Z" style="fill:rgb(30,55,101);fill-rule:nonzero;"/>
    </g>
    <g transform="matrix(2.7387,0,0,2.7387,1261.53,4.06422)">
        <path d="M0,25.359C-2.452,26.348 -5.365,26.843 -8.754,26.843C-18.611,26.843 -22.569,21.992 -20.629,12.289C-18.794,3.108 -12.862,-1.484 -2.834,-1.484C0.225,-1.484 2.869,-1.028 5.095,-0.116L4.159,4.573C1.957,3.53 -0.541,3.01 -3.342,3.01C-10.048,3.01 -14.02,6.103 -15.26,12.289C-16.6,18.997 -14.107,22.35 -7.775,22.35C-6.839,22.35 -5.74,22.193 -4.475,21.882L-2.855,13.754L2.323,13.754L0,25.359Z" style="fill:rgb(30,55,101);fill-rule:nonzero;"/>
    </g>
    <g transform="matrix(2.7387,0,0,2.7387,258.654,116.968)">
        <path d="M0,25.592L0.936,20.903C3.525,21.945 6.589,22.466 10.119,22.466C14.403,22.466 16.829,21.033 17.404,18.168C17.82,16.084 16.713,15.042 14.082,15.042L9.707,15.042C3.987,15.042 1.652,12.438 2.693,7.229C3.838,1.498 8.483,-1.367 16.621,-1.367C19.748,-1.367 22.619,-0.912 25.238,0L24.301,4.689C21.708,3.646 18.849,3.126 15.722,3.126C11.035,3.126 8.417,4.493 7.872,7.229C7.455,9.312 8.379,10.355 10.644,10.355L15.019,10.355C21.105,10.355 23.623,12.958 22.582,18.168C21.409,24.029 16.954,26.959 9.22,26.959C5.69,26.959 2.614,26.503 0,25.592" style="fill:rgb(30,55,101);fill-rule:nonzero;"/>
    </g>
    <g transform="matrix(2.7387,0,0,2.7387,336.438,190.263)">
        <path d="M0,-27.935L5.374,-27.935L10.531,-14.475L20.609,-27.935L26.179,-27.935L12.267,-9.767L10.315,0L5.137,0L7.093,-9.767L0,-27.935Z" style="fill:rgb(30,55,101);fill-rule:nonzero;"/>
    </g>
    <g transform="matrix(2.7387,0,0,2.7387,396.686,116.968)">
        <path d="M0,25.592L0.937,20.903C3.526,21.945 6.59,22.466 10.119,22.466C14.403,22.466 16.83,21.033 17.404,18.168C17.821,16.084 16.713,15.042 14.082,15.042L9.708,15.042C3.988,15.042 1.653,12.438 2.694,7.229C3.838,1.498 8.484,-1.367 16.622,-1.367C19.747,-1.367 22.62,-0.912 25.238,0L24.302,4.689C21.708,3.646 18.849,3.126 15.723,3.126C11.036,3.126 8.417,4.493 7.872,7.229C7.455,9.312 8.379,10.355 10.644,10.355L15.019,10.355C21.105,10.355 23.623,12.958 22.583,18.168C21.409,24.029 16.955,26.959 9.221,26.959C5.691,26.959 2.614,26.503 0,25.592" style="fill:rgb(30,55,101);fill-rule:nonzero;"/>
    </g>
    <g transform="matrix(2.7387,0,0,2.7387,531.187,190.263)">
        <path d="M0,-27.935L-0.899,-23.441L-8.908,-23.441L-13.599,0L-18.774,0L-14.087,-23.441L-22.095,-23.441L-21.196,-27.935L0,-27.935Z" style="fill:rgb(30,55,101);fill-rule:nonzero;"/>
    </g>
    <g transform="matrix(2.7387,0,0,2.7387,591.585,190.263)">
        <path d="M0,-27.935L-0.899,-23.481L-14.886,-23.481L-16.292,-16.448L-2.968,-16.448L-3.888,-11.819L-17.267,-11.819L-18.732,-4.493L-4.412,-4.493L-5.312,0L-24.709,0L-19.123,-27.935L0,-27.935Z" style="fill:rgb(30,55,101);fill-rule:nonzero;"/>
    </g>
    <g transform="matrix(2.7387,0,0,2.7387,590.15,113.759)">
        <path d="M0,27.935L5.586,0L10.956,0L16.192,21.196L29.712,0L34.887,0L29.301,27.935L24.513,27.935L28.402,8.479L16.933,27.935L12.521,27.935L8.67,8.479L4.783,27.935L0,27.935Z" style="fill:rgb(30,55,101);fill-rule:nonzero;"/>
    </g>
    <g transform="matrix(2.7387,0,0,2.7387,685.751,116.968)">
        <path d="M0,25.592L0.937,20.903C3.526,21.945 6.589,22.466 10.119,22.466C14.403,22.466 16.829,21.033 17.404,18.168C17.82,16.084 16.713,15.042 14.082,15.042L9.708,15.042C3.988,15.042 1.652,12.438 2.693,7.229C3.838,1.498 8.483,-1.367 16.621,-1.367C19.747,-1.367 22.62,-0.912 25.238,0L24.301,4.689C21.708,3.646 18.848,3.126 15.722,3.126C11.035,3.126 8.416,4.493 7.872,7.229C7.456,9.312 8.379,10.355 10.644,10.355L15.019,10.355C21.105,10.355 23.623,12.958 22.582,18.168C21.408,24.029 16.955,26.959 9.22,26.959C5.69,26.959 2.614,26.503 0,25.592" style="fill:rgb(30,55,101);fill-rule:nonzero;"/>
    </g>
    <g transform="matrix(2.7387,0,0,2.7387,808.474,190.263)">
        <path d="M0,-27.935L-4.687,-4.493L6.411,-4.493L5.511,0L-10.76,0L-5.174,-27.935L0,-27.935Z" style="fill:rgb(30,55,101);fill-rule:nonzero;"/>
    </g>
    <g transform="matrix(2.7387,0,0,2.7387,845.342,113.759)">
        <path d="M0,27.935L-5.507,27.935L11.939,0L17.504,0L24.031,27.935L18.657,27.935L16.996,20.316L7.718,20.316L10.394,15.824L16.022,15.824L13.716,5.332L0,27.935Z" style="fill:rgb(30,55,101);fill-rule:nonzero;"/>
    </g>
    <g transform="matrix(2.7387,0,0,2.7387,957.111,126.063)">
        <path d="M0,18.949C2.289,18.949 3.671,17.777 4.137,15.433C4.725,12.528 3.304,11.077 -0.121,11.077L-1.682,11.077L-1.016,7.737C3.421,7.02 5.931,5.223 6.502,2.344C6.814,0.781 6.006,0.001 4.079,0.001L-3.497,0.001L-7.289,18.949L0,18.949ZM-13.362,23.442L-7.776,-4.493L5.311,-4.493C10.627,-4.493 12.845,-2.324 11.971,2.013C11.347,5.189 9.166,7.462 5.428,8.83C8.983,9.521 10.41,11.637 9.707,15.179C8.6,20.689 5.136,23.442 -0.687,23.442L-13.362,23.442Z" style="fill:rgb(30,55,101);fill-rule:nonzero;"/>
    </g>
</svg>
